<?xml version="1.0" ?><!DOCTYPE svg  PUBLIC '-//W3C//DTD SVG 1.1//EN'  'http://www.w3.org/Graphics/SVG/1.1/DTD/svg11.dtd'><svg enable-background="new 0 0 100 100" height="100px" id="Layer_1" version="1.1" viewBox="0 0 100 100" width="100px" xml:space="preserve" xmlns="http://www.w3.org/2000/svg" xmlns:xlink="http://www.w3.org/1999/xlink"><path d="M77.827,18.487C71.44,13.182,62.215,9.497,50.41,7.534c-0.272-0.045-0.549-0.045-0.821,0C14.288,13.417,12.5,33.112,12.5,37  c0,12.841,4.919,21.344,15,25.957V80c0,0.663,0.263,1.299,0.732,1.768l10,10C38.701,92.237,39.337,92.5,40,92.5h20  c0.663,0,1.299-0.263,1.768-0.732l10-10C72.237,81.299,72.5,80.663,72.5,80V62.957c10.081-4.612,15-13.116,15-25.957  C87.5,33.839,86.557,25.708,77.827,18.487z M28.038,38.451C27.689,38.893,27.5,39.438,27.5,40v17.355  c-6.881-3.936-10-10.361-10-20.355c0-3.167,1.574-19.172,32.5-24.465c7.621,1.301,14.004,3.347,19.085,6.098  c-5.669,0.892-12.811,2.461-19.825,5.211c-0.138,0.043-0.271,0.096-0.398,0.161C39.766,27.614,32.756,32.471,28.038,38.451z   M38.5,50.5c1.654,0,3-1.346,3-3h3v12H42c-1.192,0-2.218,0.841-2.452,2.01l-1.083,5.419L32.5,60.965V47.5h3  C35.5,49.154,36.846,50.5,38.5,50.5z M67.5,78.964L58.964,87.5H41.036L32.5,78.964V68.035l5.732,5.732  c0.652,0.653,1.61,0.894,2.492,0.625c0.882-0.267,1.546-0.998,1.727-1.902l1.598-7.99h11.901l1.598,7.99  c0.181,0.904,0.845,1.635,1.727,1.902C59.514,74.465,59.758,74.5,60,74.5c0.653,0,1.292-0.256,1.768-0.732l5.732-5.732V78.964z   M67.5,41v1.5H56c-1.381,0-2.5,1.119-2.5,2.5s1.119,2.5,2.5,2.5h2.5c0,1.654,1.346,3,3,3s3-1.346,3-3h3v13.465l-5.965,5.964  l-1.083-5.419c-0.234-1.168-1.26-2.01-2.452-2.01h-8.5V45c0-1.381-1.119-2.5-2.5-2.5H32.5v-1.613  c4.039-4.833,9.936-8.84,17.518-11.945c7.557,3.11,13.443,7.116,17.482,11.946V41z M72.5,57.355V41v-1  c0-0.563-0.189-1.108-0.538-1.55c-3.697-4.679-8.804-8.665-15.196-11.915c6.399-1.943,12.527-2.969,16.945-3.5  c0.009-0.001,0.68-0.073,1.599-0.107c6.456,5.7,7.19,11.701,7.19,14.072C82.5,46.995,79.381,53.419,72.5,57.355z M52,67.5h-4  c-1.381,0-2.5,1.119-2.5,2.5s1.119,2.5,2.5,2.5h4c1.381,0,2.5-1.119,2.5-2.5S53.381,67.5,52,67.5z"/></svg>